<svg width="234" height="235" viewBox="0 0 234 235" fill="none" xmlns="http://www.w3.org/2000/svg">
<path d="M59.4573 117.213C60.5363 111.38 62.9709 108.092 69.3656 108.71L68.8787 108.926C71.5193 109.56 72.4563 110.302 74.4212 112.147C74.1719 115.271 75.4499 120.984 74.0324 123.199C73.2045 123.636 72.1762 124.018 71.7647 124.772C69.2558 126.087 66.6604 127.335 64.2043 128.688C62.4879 129.633 60.7321 131.111 59.0648 132.206C37.1815 146.584 31.4356 172.386 56.0451 188.296L55.9797 193.978C22.3689 180.272 25.5249 142.367 54.6599 126.288C57.0228 124.985 59.5043 123.985 61.941 122.835C61.3501 121.909 60.7732 121.048 60.2926 120.059C56.5874 121.122 54.7912 122.421 51.4062 123.922C34.958 131.213 15.6123 145.013 17.959 165.462C18.1442 167.076 18.7995 169.238 18.911 170.571C18.0729 170.195 18.4772 170.123 17.8471 169.073C17.7893 169.51 17.8084 169.485 17.5326 169.826C15.659 169.626 10.4114 161.565 10.1415 159.726C10.2121 160.008 9.99347 161.344 9.9274 161.679L9.5479 161.617C8.54482 136.103 37.1293 119.577 59.4573 117.213Z" fill="#A5A5A5"/>
<path d="M64.0572 211.271C62.6347 209.025 61.8181 201.17 61.7433 198.316C61.4501 187.145 64.6626 177.792 69.7528 168.057C71.4699 164.774 72.6838 161.891 75.325 159.129C76.076 159.675 77.4601 160.625 78.0765 161.243C75.8219 167.084 73.5249 172.108 72.098 178.235C69.6365 188.803 68.5777 199.918 72.5768 210.269C73.2895 212.112 74.7454 213.603 75.5452 215.179C79.0094 219.878 80.4394 220.967 85.2826 223.973C91.4018 227.772 101.592 228.126 108.482 226.27C109.926 227.298 111.335 228.77 112.579 230.039C110.261 231.067 107.264 232.08 104.84 232.847C88.5786 237.994 69.2489 227.618 64.0572 211.271Z" fill="#C8C8C8"/>
<path d="M64.0572 211.271C62.6347 209.025 61.8181 201.17 61.7433 198.316C61.4501 187.145 64.6626 177.792 69.7528 168.057C71.4699 164.774 72.6838 161.891 75.325 159.129C76.076 159.675 77.4601 160.625 78.0765 161.243C75.8219 167.084 73.5249 172.108 72.098 178.235C69.6365 188.803 68.5777 199.918 72.5768 210.269C73.2895 212.112 74.7454 213.603 75.5452 215.179C73.2371 215.533 69.8512 203.772 69.7171 201.94C69.6423 200.916 69.8334 199.707 69.59 198.803C68.1304 198.682 66.8194 198.477 65.4572 197.927C64.7478 197.64 62.8835 196.508 62.3352 196.443C61.4829 198.625 63.4528 208.215 64.3446 210.947L64.0572 211.271Z" fill="#A3A3A3"/>
<path d="M121.231 4.10947C126.912 0.118435 137.401 -0.678818 144.161 0.497061C151.219 1.72511 160.054 6.95788 164.144 12.861C164.871 13.9112 166.88 16.8507 167.311 18.0077C172.793 26.4697 172.687 38.624 170.818 48.1782C169.774 53.5136 162.884 70.1763 159.303 73.5779C158.995 72.9473 156.796 71.7697 156.131 71.4387C157.91 66.7769 160.555 60.1411 161.727 55.3674C164.087 45.7615 165.042 33.7788 161.327 24.3822C160.807 23.0663 158.455 19.3661 157.599 17.9644C148.103 6.54751 138.611 5.51639 124.743 7.74752C123.59 6.5173 122.42 5.30448 121.231 4.10947Z" fill="#C8C8C8"/>
<path d="M157.599 17.9644L158.064 17.9996C159.333 19.6682 160.407 21.4776 161.263 23.3919C161.771 24.503 162.647 27.2403 163.281 27.9524C164.832 28.0926 169.439 28.4193 170.753 28.955C171.444 27.2027 167.351 19.7082 167.311 18.0076C172.793 26.4696 172.687 38.624 170.818 48.1782C169.774 53.5135 162.884 70.1762 159.303 73.5778C158.995 72.9473 156.796 71.7696 156.13 71.4386C157.91 66.7768 160.554 60.141 161.727 55.3673C164.087 45.7614 165.042 33.7787 161.327 24.3821C160.807 23.0663 158.455 19.3661 157.599 17.9644Z" fill="#A8A8A8"/>
<path d="M151.085 114.135C153.343 112.654 158.441 110.826 161.094 109.639C166.316 107.3 177.107 100.86 180.985 96.8538C181.179 97.6767 181.23 97.8786 181.296 98.7319C181.478 101.087 182.568 102.618 183.6 104.525C180.171 107.817 176.246 109.201 171.942 111.134C172.729 112.27 173.114 112.873 173.74 114.096C174.737 113.007 182.191 110.213 184.258 109.228C183.878 110.896 183.986 113.262 184.639 114.81C182.39 115.75 176.674 116.516 174.163 116.862C173.681 121.604 170.99 125.398 165.909 125.495C163.602 125.537 161.374 124.662 159.711 123.062C157.619 121.02 157.199 118.751 157.185 115.977C155.708 116.336 153.577 116.63 152.028 116.887C150.467 122.877 146.257 127.822 139.293 124.575C137.03 123.52 135.628 120.333 135.035 117.994C132.966 117.974 126.13 118.403 124.893 117.469C124.768 116.949 124.822 116.936 125.022 116.451C126.031 115.958 133.263 116.153 135.078 116.061C136.356 110.327 140.392 107.167 146.552 109.2C148.614 109.881 150.33 112.121 151.085 114.135Z" fill="#777777"/>
<path d="M164.563 112.567C169.82 112.399 172.778 118.233 166.758 120.953C165.882 121.077 165.257 121.172 164.377 120.901C163.391 120.604 162.568 119.917 162.099 119C160.88 116.604 162.3 113.701 164.563 112.567Z" fill="#2D2D2D"/>
<path d="M226.013 125.138C227.852 123.545 228.837 122.903 230.16 120.838C230.877 123.576 231.969 126.053 232.653 128.782C234.757 137.17 234.005 146.995 229.612 154.557C224.931 162.511 217.258 168.26 208.31 170.522C199.303 172.873 188.828 172.142 180.04 169.218C180.123 169.026 180.176 168.995 180.154 168.764C180.024 167.387 181.618 164.844 182.333 163.67C182.807 162.893 184.424 163.349 185.794 163.212L186.02 163.188C193.975 163.769 200.578 164.575 208.26 161.725C225.207 155.436 228.782 141.193 226.013 125.138Z" fill="#C2C2C2"/>
<path d="M115.241 52.1599C115.747 54.7755 116.174 57.0462 116.502 59.6858C118.144 59.7244 119.304 59.7949 120.745 60.6047C127.338 64.3086 126.189 75.01 118.427 76.41C117.507 76.5758 116.55 76.5219 115.631 76.5002C116.066 78.4703 116.233 80.1519 116.457 82.1538C121.624 82.5224 125.468 85.5188 125.07 91.0583C124.885 93.4913 123.735 95.7494 121.876 97.33C120.502 98.4824 119.322 98.8445 117.575 99.2079C117.627 101.283 118.028 106.732 117.25 108.344C116.627 108.794 116.897 108.674 115.975 108.62C115.085 107.681 115.508 100.868 115.521 99.0097C112.67 98.3539 111.179 97.2519 109.594 94.7454C106.443 89.7639 109.146 85.4019 113.677 82.6584C110.817 75.0724 107.249 67.7722 103.021 60.8547C102.339 59.7366 100.724 58.1356 100.21 57.2714L100.377 56.8547L99.9144 56.3933C101.866 55.5039 105.12 54.2515 105.939 52.2547C107.465 55.0355 110.079 59.1074 111.131 61.8723C111.977 61.2824 112.723 60.7308 113.645 60.2635C113.289 59.2884 111.999 56.2401 111.866 55.4237C111.699 52.6244 114.258 53.657 115.241 52.1599Z" fill="#787878"/>
<path d="M115.458 86.3809C117.295 85.7429 119.332 86.4161 120.428 88.0236C121.189 89.1397 121.381 90.5484 120.949 91.8279C120.516 93.1075 119.508 94.1099 118.226 94.5351C115.98 95.2802 113.553 94.0732 112.793 91.8323C112.032 89.5916 113.222 87.157 115.458 86.3809Z" fill="#2D2D2D"/>
<path d="M210.081 109.184C211.84 108.245 212.892 107.07 214.235 105.604C224.605 130.681 211.746 153.552 184.214 156.14C179.171 156.614 175.446 155.869 170.476 154.977L166.196 153.984C165.107 151.109 167.539 150.359 168.091 146.991C169.696 147.3 171.304 147.588 172.916 147.854C180.297 148.947 185.612 148.205 192.708 145.749C203.308 142.08 209.573 133.466 211.09 122.514C211.755 117.7 211.046 113.867 210.081 109.184Z" fill="#ADADAD"/>
<path d="M168.091 146.991C169.696 147.3 171.304 147.588 172.916 147.854C173.075 148.603 170.887 153.894 170.476 154.977L166.196 153.984C165.107 151.109 167.539 150.359 168.091 146.991Z" fill="#8D8D8D"/>
<path d="M19.4801 128.475C11.5278 109.531 16.4556 89.7615 36.2147 81.0848C42.9899 78.1097 48.6947 77.1094 56.1549 77.7047C58.6723 77.9056 61.1627 78.1088 63.5903 78.863C64.7171 79.1125 65.4435 79.2818 66.5281 79.66C66.9165 80.0815 67.3573 80.398 67.3045 81.032C67.1778 82.5582 65.4431 85.6566 64.3217 86.5758C62.3632 86.2587 60.0899 86.0533 58.0976 85.8398C47.1645 85.7409 38.6358 86.9253 30.1862 94.9319C27.5834 97.398 24.3168 103.472 23.2968 106.864C21.7869 111.884 21.9673 119.675 23.2457 124.752C21.9957 125.94 20.7129 127.255 19.4801 128.475Z" fill="#AFAFAF"/>
<path d="M63.5904 78.863C64.7171 79.1126 65.4435 79.2819 66.5281 79.6601C66.9165 80.0815 67.3573 80.398 67.3045 81.032C67.1778 82.5583 65.4431 85.6566 64.3218 86.5758C62.3632 86.2587 60.0899 86.0533 58.0977 85.8398C58.2492 85.8277 59.7745 85.6799 59.8247 85.5771C60.4961 84.2034 61.5577 79.8989 62.3821 78.9726C62.9629 79.0839 63.0463 79.0915 63.5904 78.863Z" fill="#8D8D8D"/>
<path d="M126.383 179.311L126.281 178.566C127.072 177.091 130.817 177.06 132.341 175.614C133.097 176.552 135.47 179.086 135.891 179.69C137.316 180.915 138.413 182.963 139.853 184.225C141.422 185.604 143.133 186.775 144.863 187.936C150.721 192.333 156.424 193.965 163.709 193.761C171.838 193.535 178.634 189.231 183.938 183.323C185.192 181.928 187.485 179.206 188.37 177.558C190.009 177.608 192.032 177.728 193.638 177.608C192.743 179.791 191.832 182.128 190.8 184.11C182.221 200.557 160.594 207.334 144.598 197.543C143.276 196.734 141.661 196.176 140.389 195.193C135.962 192.268 129.719 185.953 127.546 181.12C127.238 180.833 126.637 179.735 126.383 179.311Z" fill="#ACACAC"/>
<path d="M126.383 179.311L126.281 178.566C127.072 177.091 130.817 177.06 132.341 175.614C133.097 176.552 135.47 179.086 135.891 179.69C135.252 179.361 134.127 178.322 133.638 178.412C132.025 178.707 129.209 179.928 128.066 181.065C127.949 181.074 127.634 181.078 127.546 181.12C127.238 180.833 126.637 179.735 126.383 179.311Z" fill="#8D8D8D"/>
<path d="M3.61465 112.612C-8.66035 83.6128 11.7978 58.762 42.8021 62.1135C45.6198 62.4183 48.9058 63.5046 51.6777 64.2625C51.2791 65.3751 49.8032 69.3357 48.7756 70.218C48.5817 70.3845 47.8875 70.2186 47.5723 70.1558L46.9824 70.3932C39.4848 70.2908 36.288 69.1971 28.387 71.2117C12.1955 75.3406 2.28271 92.3091 7.68676 108.794L7.56417 108.89L7.36225 109.054C5.91055 110.214 4.9116 111.284 3.61465 112.612Z" fill="#C5C5C5"/>
<path d="M115.537 135.021C115.538 132.988 115.202 127.284 115.752 125.728C116.382 125.283 116.168 125.295 116.815 125.297C118.216 126.447 117.656 133.087 117.502 134.964C120.244 135.343 122.499 136.523 123.907 138.999C125.073 141.092 125.369 143.56 124.73 145.869C123.924 148.79 122.457 150.046 119.964 151.442C121.229 154.157 122.218 157.429 123.551 160.113C126.142 165.328 129.294 170.647 132.341 175.614C130.817 177.06 127.072 177.091 126.281 178.566L126.383 179.311C124.55 177.068 123.342 174.368 122.582 171.59C121.784 172.454 120.885 173.197 119.995 173.965L121.647 177.957C120.833 178.299 118.935 179.295 118.383 179.482L118.017 180.072C117.383 178.028 117.026 176.603 116.742 174.488C105.52 173.155 105.177 157.6 117.83 157.543L116.699 151.939C115.306 151.775 114.324 151.683 113.086 151.034C110.882 149.866 109.246 147.853 108.554 145.456C107.094 140.551 110.95 136.256 115.537 135.021Z" fill="#767676"/>
<path d="M116.409 139.092C118.101 139.241 119.679 139.853 120.574 141.4C121.141 142.378 121.259 143.554 120.895 144.625C120.338 146.303 119.071 147.156 117.604 147.948C115.518 147.994 113.653 146.952 112.907 144.907C112.512 143.832 112.582 142.641 113.1 141.62C113.801 140.23 114.994 139.539 116.409 139.092Z" fill="#2D2D2D"/>
<path d="M60.7574 34.1204C78.4688 27.7555 96.4956 36.8054 105.939 52.2546C105.12 54.2514 101.866 55.5038 99.9144 56.3932L100.377 56.8547L100.21 57.2713C98.7852 55.91 97.4057 53.6746 96.0094 52.122C85.571 40.5165 69.0233 35.9507 55.4557 45.2506C54.771 45.7199 53.977 46.5789 53.3632 47.1662C51.998 48.4724 50.6887 49.779 49.2579 51.0161C47.5395 52.8002 46.6631 54.3884 45.3938 56.4919L39.6711 56.458C39.9343 55.749 40.2247 55.0506 40.5418 54.364C44.8454 45.2478 50.9982 37.635 60.7574 34.1204Z" fill="#AAAAAA"/>
<path d="M39.6711 56.4581C39.9343 55.7491 40.2247 55.0507 40.5418 54.3641C44.8454 45.2479 50.9982 37.6351 60.7574 34.1205C60.4878 35.5478 50.0625 46.7622 49.482 49.3089C49.3581 49.8523 49.6932 50.0296 49.2579 51.0162C47.5395 52.8002 46.6631 54.3884 45.3938 56.492L39.6711 56.4581Z" fill="#C8C8C8"/>
<path d="M128.915 103.216C128.262 102.285 127.886 101.653 127.569 100.54C126.938 98.3089 127.238 95.9172 128.4 93.9106C129.676 91.7303 132.125 90.0973 134.743 89.9702C135.919 89.913 137.742 90.4912 138.969 90.1727C139.835 88.7269 140.438 86.6368 141.138 85.0649C144.222 78.1346 145.622 72.4178 147.107 64.993C148.969 66.2113 151.804 66.4524 153.785 67.6382L153.977 67.7547C153.402 69.4979 152.431 72.2022 152.106 73.9117C152.563 74.4179 153.744 74.4279 154.486 74.4701C155.608 73.8837 155.701 72.7795 156.13 71.4386C156.796 71.7697 158.995 72.9473 159.303 73.5778L157.219 76.2847C165.72 86.8768 149.877 97.0122 144.839 87.0755C143.859 89.6278 143.061 90.2106 141.212 92.2306C142.628 93.7604 143.417 94.3474 143.928 96.4807C145.395 102.601 138.614 108.62 132.678 106.487C132.253 106.334 130.833 105.249 130.314 104.926C128.342 106.069 124.926 111.993 122.253 111.272L122.104 110.877C122.171 110.467 122.388 109.69 122.677 109.403C124.782 107.314 126.903 105.417 128.915 103.216Z" fill="#747474"/>
<path d="M76.3305 76.5362C82.6529 71.4208 91.0477 74.8439 90.5122 83.3704C90.3539 85.8921 88.8255 87.3543 87.5648 89.3944C88.9796 90.3029 90.7702 91.4836 92.0104 92.6121C95.8451 89.3441 101.071 88.7073 104.557 92.8435C105.987 94.5623 106.657 96.7891 106.412 99.012C106.227 100.783 105.661 102.038 104.694 103.509C105.551 104.331 106.532 105.448 107.322 106.347C108.152 107.292 111.017 109.359 111.274 110.336C110.973 111.054 111.142 110.803 110.459 111.283C108.037 111.551 105.027 106.174 103.164 105.026C102.669 105.242 102.618 105.309 102.253 105.676C101.326 106.61 99.0815 106.996 97.7557 106.838C91.1957 106.055 88.4438 100.45 90.1983 94.731C83.8422 92.1017 71.0754 87.4719 64.3218 86.5757C65.4431 85.6565 67.1778 82.5582 67.3045 81.0319C67.3573 80.3979 66.9165 80.0814 66.5281 79.66C68.9112 80.487 71.1697 81.3595 73.5917 82.1537C73.8114 81.1202 74.1224 79.9821 74.3817 78.9468L71.2379 77.541L71.3444 77.3258C72.7627 76.9774 72.99 75.8817 73.2885 74.6004L76.3305 76.5362Z" fill="#737373"/>
<path d="M80.7956 78.3744C82.9952 77.5222 85.4693 78.6122 86.3246 80.8103C87.1801 83.0086 86.0938 85.4843 83.8968 86.343C81.6952 87.2035 79.2133 86.1144 78.356 83.9115C77.4988 81.7086 78.5916 79.2284 80.7956 78.3744Z" fill="#2D2D2D"/>
<path d="M121.885 123.74C122.274 123.19 122.507 122.701 123.111 122.481C124.96 123.772 128.707 127.286 130.174 129.019C135.107 125.973 140.293 126.905 143.156 132.006C144.527 134.449 143.812 136.46 143.879 139.077C147.255 142.137 163.025 145.867 168.091 146.991C167.539 150.359 165.107 151.109 166.196 153.984C164.026 153.288 161.873 152.541 159.738 151.744C159.533 152.643 159.138 153.714 159.468 154.491C160.051 155.266 161.829 155.871 163.01 156.68C160.702 156.845 160.378 157.69 160.813 159.782C159.289 158.999 158.719 158.702 157.508 157.507C156.293 158.456 155.29 159.303 153.771 159.675C146.973 161.341 144.339 157.042 142.743 151.559C143.385 148.835 144.306 146.668 146.246 144.662C144.53 143.593 143.016 142.691 141.243 141.721C136.875 145.971 129.802 144.582 127.785 138.673C126.686 135.455 127.509 133.385 128.897 130.494C126.933 128.209 124.327 126.546 121.885 123.74Z" fill="#747474"/>
<path d="M177.681 40.0962C184.266 42.8161 189.198 45.5291 193.845 51.0036C208.584 68.3671 201.242 93.317 183.6 104.525C182.569 102.618 181.478 101.087 181.296 98.7319C181.23 97.8786 181.179 97.6767 180.985 96.8538C181.898 95.8131 182.899 94.6563 183.908 93.7454C190.446 87.8478 193.847 78.427 193.354 69.674C192.919 62.8985 189.948 56.1573 184.989 51.4896C182.897 49.5213 180.172 47.9426 178.244 45.8534C177.361 44.8958 177.649 41.3936 177.681 40.0962Z" fill="#AEAEAE"/>
<path d="M110 122.331L111.627 123.71C109.388 126.082 106.903 127.901 104.564 130.387C109.477 138.535 104.119 145.519 94.7597 143.595C91.1323 152.202 88.955 156.715 87.1595 166.216C85.3246 165.886 81.9965 164.711 80.517 163.66C80.9089 162.436 81.387 161.26 81.8578 160.065C80.6267 159.862 80.1796 159.72 78.9931 159.309L78.0765 161.243C77.4601 160.625 76.076 159.675 75.3251 159.129C75.9341 158.496 76.2247 158.413 76.3551 157.658C75.8708 156.956 75.3259 156.293 74.8673 155.579C72.3662 151.687 73.9177 146.999 77.6164 144.559C79.5552 143.268 81.9391 142.83 84.2102 143.348C86.1753 143.79 87.5827 144.755 88.9574 146.204C89.9536 144.688 90.8862 142.947 92.3399 141.92C92.2392 141.676 92.3008 141.696 92.0795 141.615C90.933 141.192 90.3048 139.294 89.9473 138.14C89.3087 136.08 89.576 133.519 90.6463 131.591C91.7493 129.641 93.5786 128.205 95.7351 127.597C98.5168 126.809 100.826 127.404 103.17 128.933C105.563 126.519 107.504 124.629 110 122.331Z" fill="#737373"/>
<path d="M81.2979 147.11C86.6892 147.095 88.8531 153.197 83.5867 155.51C80.7285 155.81 77.9183 154.809 78.1759 151.294C78.325 149.259 79.7828 148.243 81.2979 147.11Z" fill="#2D2D2D"/>
<path d="M138.594 20.234C143.082 23.3065 146.701 25.5894 149.481 30.47C150.451 32.1736 151.897 33.8496 152.699 35.6932C157.166 45.6723 156.93 57.4142 153.977 67.7547L153.785 67.6382C151.804 66.4524 148.969 66.2113 147.107 64.9931C149.658 46.3285 145.991 28.7021 125.384 23.2041C125.764 23.0272 135.537 21.7848 136.34 21.8707C137.277 21.4405 137.945 21.0382 138.594 20.234Z" fill="#A5A5A5"/>
<path d="M39.6326 33.8927C45.0838 22.3843 50.9039 14.7361 63.4449 10.7449C69.8056 8.72045 79.526 9.15537 85.4311 12.2533C86.1457 13.3083 91.9456 16.0007 93.7344 17.1816C93.0791 17.6308 87.7313 21.4752 87.7576 21.4736C84.4391 21.666 80.0931 17.337 75.6495 18.0084C71.8515 18.0649 69.1209 17.2733 64.8723 18.4929C56.8652 20.7914 49.5646 26.9533 45.3766 33.9912C43.5354 33.9071 41.4906 33.919 39.6326 33.8927Z" fill="#C8C8C8"/>
<path d="M91.803 211.597C89.068 210.18 83.5973 203.485 82.1847 200.749C75.7773 188.336 76.8798 176.373 80.5169 163.66C81.9965 164.711 85.3246 165.886 87.1595 166.216C83.8253 184.469 85.8093 201.907 104.927 210.012C102.883 210.175 101.759 208.68 100.155 208.506C97.5913 208.23 92.9886 209.234 90.5793 208.756C90.2711 209.317 90.3569 209.106 90.3848 209.812C91.0377 210.973 91.2059 210.46 91.803 211.597Z" fill="#A2A2A2"/>
<path d="M118.017 180.072L118.383 179.482C118.935 179.295 120.833 178.299 121.647 177.958C129.261 196.252 141.895 216.279 164.07 216.242C162.077 217.746 157.972 215.796 155.515 215.876C154.63 216.735 153.665 217.783 152.59 218.309C151.501 218.841 149.224 219.993 148.488 220.913C149.124 221.504 150.316 222.186 150.537 222.427C148.248 221.984 143.681 219.852 141.689 218.552C128.132 209.708 121.67 194.848 118.017 180.072Z" fill="#ACACAC"/>
<path d="M199.807 40.1342C216.724 46.2483 228.082 62.1029 223.135 81.4949C223.118 81.5399 223.101 81.5851 223.083 81.6303C222.896 81.7662 222.59 82.0709 222.407 82.2404C222.173 83.2289 220.886 86.1367 220.442 87.4162C220.429 87.3862 220.214 86.89 220.216 86.8374C220.166 85.2644 218.432 84.2264 217.78 82.8294C217.321 81.8431 216.211 80.7624 215.176 80.4957C215.658 78.6224 216.621 75.8511 215.904 74.1801C216.098 64.8052 214.217 58.5815 207.49 51.6539C205.208 49.3017 203.402 48.0378 200.642 46.2907C199.479 45.5545 199.779 41.6354 199.807 40.1342Z" fill="#C8C8C8"/>
<path d="M215.904 74.1802C216.621 75.8512 215.659 78.6224 215.176 80.4958C216.211 80.7625 217.321 81.8432 217.78 82.8295C218.432 84.2264 220.166 85.2645 220.216 86.8375C220.214 86.8901 220.429 87.3863 220.442 87.4163C220.886 86.1368 222.173 83.229 222.407 82.2405C222.59 82.071 222.896 81.7662 223.083 81.6304C222.003 85.7433 220.497 89.091 217.989 92.5328C215.567 95.8548 213.733 98.8097 210.346 101.304C207.829 103.158 205.484 105.478 202.739 107.05C198.881 109.287 194.767 111.016 190.598 112.571C188.518 113.349 186.953 114.376 184.639 114.81C183.986 113.262 183.878 110.896 184.258 109.228C188.902 107.283 193.649 104.107 197.87 101.256C204.404 96.8442 211.138 89.4168 214.141 82.0625C214.954 80.0693 215.537 76.3867 215.904 74.1802Z" fill="#AEAEAE"/>
<path d="M188.333 200.142C190.067 200.153 191.861 200.188 193.589 200.173C192.628 202.609 191.517 205.185 190.296 207.384C182.879 220.73 165.594 227.922 151.053 222.682C150.847 222.608 150.724 222.534 150.537 222.427C150.316 222.186 149.124 221.504 148.488 220.912C149.224 219.993 151.501 218.841 152.59 218.309C153.665 217.783 154.63 216.735 155.515 215.876C157.972 215.796 162.077 217.746 164.07 216.242C172.386 214.694 178.618 212.238 184.055 205.504C185.223 204.061 186.616 202.807 187.707 201.188C187.937 200.851 188.146 200.503 188.333 200.142Z" fill="#C8C8C8"/>
<path d="M85.4311 12.2533C102.331 19.6661 111.022 34.8182 115.241 52.1599C114.258 53.6571 111.699 52.6244 111.866 55.4237C110.488 52.1265 109.011 49.6173 107.401 46.4731C100.716 33.4243 90.7945 21.0107 75.6495 18.0084C80.0931 17.337 84.4391 21.666 87.7576 21.4736C87.7313 21.4751 93.0791 17.6308 93.7344 17.1816C91.9456 16.0007 86.1457 13.3083 85.4311 12.2533Z" fill="#A9A9A9"/>
<path d="M81.7361 117.205C81.9854 114.373 82.5146 112.61 84.7453 110.698C88.233 107.71 93.7025 107.864 96.7067 111.455C97.9397 112.928 98.2166 114.213 98.6542 116.032C100.529 116.131 106.923 115.912 107.838 116.581L108.058 117.203C107.084 118.445 100.518 118.009 98.7333 117.997C97.0873 123.218 94.1906 126.729 87.9243 125.129C85.3355 124.469 83.6008 122.163 82.2064 119.986C78.7136 121.419 75.0681 123.552 71.7648 124.772C72.1762 124.018 73.2045 123.636 74.0324 123.199C75.45 120.984 74.172 115.272 74.4213 112.148C72.4564 110.302 71.5194 109.56 68.8788 108.926L69.3657 108.71C74.4871 109.862 76.2481 113.02 76.6016 117.941L81.7361 117.205Z" fill="#696969"/>
<path d="M89.4508 112.578C90.4641 112.527 91.5997 112.759 92.6172 112.922C94.7861 115.92 96.2854 119.926 91.2072 121.016C84.4973 121.433 85.2802 113.81 89.4508 112.578Z" fill="#2D2D2D"/>
<path d="M9.54791 161.618L9.92741 161.68C9.99349 161.345 10.2121 160.008 10.1415 159.726C10.4115 161.565 15.659 169.626 17.5326 169.826C17.8084 169.485 17.7893 169.51 17.8471 169.073C18.4772 170.123 18.0729 170.195 18.911 170.571C19.7163 172.684 20.6555 175.524 22.0092 177.31C25.0773 181.356 29.2488 186.195 33.9523 188.207C33.9543 190.127 33.9408 192.048 33.9119 193.967C21.1152 189.809 10.2919 177.947 9.64203 164.182C9.6016 163.327 9.57117 162.473 9.54791 161.618Z" fill="#C8C8C8"/>
<path d="M91.803 211.597C91.2059 210.46 91.0377 210.973 90.3847 209.812C90.3569 209.106 90.2711 209.317 90.5793 208.756C92.9886 209.234 97.5913 208.23 100.155 208.506C101.759 208.68 102.883 210.175 104.927 210.012C111.068 211.534 118.07 212.173 124.245 210.41C125.674 211.705 127.248 212.783 128.495 214.179C126.638 214.953 123.355 216.394 121.533 216.913C114.831 218.826 106.356 218.824 99.8631 216.142C98.5885 215.616 92.6667 212.455 91.803 211.597Z" fill="#C8C8C8"/>
<path d="M105.146 19.5746C111.123 17.0463 117.596 15.4727 124.122 15.8989C128.799 16.2043 134.789 17.4441 138.594 20.234C137.945 21.0382 137.277 21.4406 136.34 21.8707C135.537 21.7848 125.764 23.0272 125.384 23.2041C124.826 23.2163 123.985 23.0359 123.389 22.9788C118.575 22.5154 113.891 22.5504 109.166 23.7343C107.523 22.3639 106.5 21.1878 105.146 19.5746Z" fill="#C8C8C8"/>
<path d="M51.6777 64.2626C61.9096 67.5685 64.6715 68.6188 73.2884 74.6005C72.99 75.8818 72.7627 76.9775 71.3444 77.3259L71.2379 77.5411C64.9986 75.0459 53.7256 71.6489 46.9824 70.3932L47.5723 70.1559C47.8875 70.2187 48.5817 70.3845 48.7756 70.218C49.8032 69.3358 51.2791 65.3752 51.6777 64.2626Z" fill="#9A9A9A"/>
<path d="M163.01 156.68C169.899 159.752 178.654 161.88 186.02 163.188L185.794 163.212C184.424 163.349 182.807 162.893 182.334 163.67C181.618 164.844 180.024 167.386 180.154 168.764C180.176 168.995 180.123 169.026 180.04 169.217C173.359 167.219 166.544 163.75 160.813 159.782C160.378 157.69 160.702 156.845 163.01 156.68Z" fill="#989898"/>
<path d="M115.21 112.587C115.756 112.562 117.113 112.473 117.588 112.614C119.811 113.276 121.57 115.961 120.776 118.246C120.266 119.715 119.389 120.348 118.113 120.99C111.506 121.645 110.717 115.29 115.21 112.587Z" fill="#606060"/>
</svg>
